/* XPM */
static char *_0e1b359d9e44fc2dbaa635552c1f3b6rBMhGm2Xck056BYV[] = {
/* columns rows colors chars-per-pixel */
"48 63 187 2 ",
"   c None",
".  c #1D0E04",
"X  c #1E1006",
"o  c #1F110C",
"O  c #221206",
"+  c #251408",
"@  c #29170A",
"#  c #2E1A0A",
"$  c #341D0C",
"%  c #3B1F0C",
"&  c #2A1B11",
"*  c #251617",
"=  c #311819",
"-  c #39210F",
";  c #332112",
":  c #3D2C1D",
">  c #362416",
",  c #331E24",
"<  c #251A36",
"1  c #231721",
"2  c #382220",
"3  c #332823",
"4  c #3E3224",
"5  c #373E37",
"6  c #4A382D",
"7  c #463C36",
"8  c #33403B",
"9  c #4E433C",
"0  c #574235",
"q  c #261D4C",
"w  c #251E53",
"e  c #2D1F5B",
"r  c #2B1E55",
"t  c #331E59",
"y  c #3C1E5D",
"u  c #272056",
"i  c #2B235C",
"p  c #3A2856",
"a  c #2E2662",
"s  c #2F2863",
"d  c #312A66",
"f  c #342C6A",
"g  c #352360",
"h  c #3C3375",
"j  c #3F367A",
"k  c #373073",
"l  c #501E46",
"z  c #4E1B44",
"x  c #4D2948",
"c  c #66255F",
"v  c #4D1E64",
"b  c #561F68",
"n  c #5A1F6A",
"m  c #501F66",
"M  c #641F6F",
"N  c #611E64",
"B  c #6E1F72",
"V  c #711F74",
"C  c #722A6E",
"Z  c #672071",
"A  c #722276",
"S  c #76237B",
"D  c #7A267D",
"F  c #7F357B",
"G  c #6F2869",
"H  c #3E7177",
"J  c #6A4D41",
"K  c #795356",
"L  c #725347",
"P  c #73655A",
"I  c #6D416E",
"U  c #714671",
"Y  c #842D7E",
"T  c #9A5F56",
"R  c #996D5F",
"E  c #934E6D",
"W  c #805E69",
"Q  c #994D7B",
"!  c #9D5875",
"~  c #846469",
"^  c #9B6A7F",
"/  c #966B72",
"(  c #A97364",
")  c #AA7C6D",
"_  c #A67767",
"`  c #A76A78",
"'  c #AD7E70",
"]  c #A26962",
"[  c #94897E",
"{  c #AA8377",
"}  c #B4897D",
"|  c #B68678",
" . c #B98C75",
".. c #D6A669",
"X. c #C6A07D",
"o. c #3F2885",
"O. c #422A8C",
"+. c #472899",
"@. c #4A2B9B",
"#. c #452799",
"$. c #493890",
"%. c #7A2B84",
"&. c #632783",
"*. c #4C2CA1",
"=. c #4727A1",
"-. c #502FA5",
";. c #5433AB",
":. c #5235A4",
">. c #5937B1",
",. c #5C3AB5",
"<. c #5837B6",
"1. c #623FBC",
"2. c #7A548A",
"3. c #735197",
"4. c #407981",
"5. c #714EA2",
"6. c #6441BF",
"7. c #7854B1",
"8. c #623FC1",
"9. c #6C47CE",
"0. c #6E49CD",
"q. c #6743C3",
"w. c #714CCC",
"e. c #7A55C3",
"r. c #7A58C9",
"t. c #862C8A",
"y. c #892D8E",
"u. c #822A86",
"i. c #873287",
"p. c #8F3688",
"a. c #93368F",
"s. c #8D2F93",
"d. c #8F3293",
"f. c #913296",
"g. c #963993",
"h. c #95349A",
"j. c #99369E",
"k. c #9B37A0",
"l. c #835F9D",
"z. c #915388",
"x. c #946A95",
"c. c #AC7986",
"v. c #A5768A",
"b. c #B07C8B",
"n. c #AA6A85",
"m. c #835CBD",
"M. c #835DA3",
"N. c #8F68AD",
"B. c #9168B6",
"V. c #9069B3",
"C. c #3DA3BA",
"Z. c #418A96",
"A. c #4097A7",
"S. c #40B2CB",
"D. c #43BFDC",
"F. c #43C2DF",
"G. c #43C5E2",
"H. c #9B9692",
"J. c #938982",
"K. c #AC8F87",
"L. c #B28F85",
"P. c #BA9588",
"I. c #AE849E",
"U. c #A89F9C",
"Y. c #AA9296",
"T. c #B7999A",
"R. c #B08D90",
"E. c #B7A38E",
"W. c #A7A09D",
"Q. c #BAAC9A",
"!. c #ABA2A0",
"~. c #B5A7A7",
"^. c #BBAFB0",
"/. c #BDB6B5",
"(. c #C6A08D",
"). c #D5B48E",
"_. c #C2B3A3",
"`. c #C6B3B0",
"'. c #E1C496",
"]. c #CDC1BE",
"[. c #C9C6C6",
"{. c #C8C5C5",
"}. c #DDDBDB",
"|. c #D7D5D4",
" X c #E0DFDF",
".X c #EAEAEA",
"XX c #F0F1F1",
/* pixels */
"                                                                                                ",
"                                                                                                ",
"                                                                                                ",
"                                                                                                ",
"                                                                                                ",
"                        F.                                                                      ",
"                                                                                                ",
"                                F.F.                                                            ",
"                    F.    F.                                                                    ",
"                                                                                                ",
"                                4.D.                              .X.X                          ",
"                    F.      Z.: : A.                w.              .X                          ",
"                            4 - ;               0.0.0.0.9.          .X    [.}..X                ",
"                      D.Z.  % 8 C.            w.0.0.0.m.B.9.      .X.X    [.[.}.                ",
"                        > 4 H   G.          0.0.0.w.R.....V.9.    .X      |.{.[. X              ",
"                          8 S.            0.0.0.0.I...{ _ T.r.9.              {.}.              ",
"                          ;               9.w.9.m.).T.L.} } n.w.      .X.X            .X        ",
"                          -             w.9.9.9.I.'.P.P._.P.R x.9.  XX.X}.}.}.}.  XX.X.X        ",
"                          $             1.0.0.w.(._.K.`.`.~./ T 7.  |.[ 7 6 6 6 7 H.W..X        ",
"                          6 J             -.8.B.).!.!./.Y.K T.( B.  P O O . . . O . & H.}.      ",
"                        } ' )             +.*.M.X.E.U.W.^.^._.v.r.~.: X X X X X . . . O 9       ",
"                        } ' )       9.w.w.,.*.@.@.l. .E.Q._.K.5.  [ ; X X X X X O . O & @       ",
"                        P.' '     w.9.9.9.q.q.1.2.&.Y ! ' ' 5.<.0.            . O > L R         ",
"                        P K /     9.w.9.w.,.q.w.c.i.h.u.E 3.<.0.9.6.            ~ ) ) (         ",
"                        < 1 k   0.0.0.9.6.,.0.w.c.p.k.y.! N.,.,.>.:.d f f f f i P | (           ",
"                          * s $.0.9.0.0.:.>.0.0.c.a.j.y.p.v.w.;.+.O.w w w w w w                 ",
"                          * i h $.q.0.>.+.*.6.0.c.a.j.y.t.c.e.;.@.                              ",
"                          * w i h O.;.*.+.+.@.6.b.g.j.y.s.Q l.=.                                ",
"                          * w w i i o.+.+.#.#.7.n.j.j.y.s.Q z.                                  ",
"                          @   w w i O.    z.2.x.z.j.k.y.s.Q {                                   ",
"                          @                 ! ` h.j.h.t.j.g.                                    ",
"                          @                 f.h.j.j.f.t.j.j.                                    ",
"                          $               C i.h.j.j.h.t.j.k.                                    ",
"                          %               = = l c i.i.I U Y                                     ",
"                          @               f.t.D C z , 7 8 3                                     ",
"                          @             k.k.j.j.h.A N v p x G                                   ",
"                          +           j.j.j.j.h.y.B m w t %.h.j.                                ",
"                          X         j.j.j.j.j.f.V M t w y B t.j.                                ",
"                          X         h.j.j.j.h.u.V v w w y B B s.j.                              ",
"                          @       j.j.j.j.j.t.V n r w i e b B %.j.j.                            ",
"                          O       k.j.j.k.d.A B y w i k f y V B u.j.                            ",
"                          +     k.k.j.k.j.%.B v r w w h j p b B A d.j.                          ",
"                          $           %.%.Z Z e w w w d j s r M B A D                           ",
"                          -           f i e t w w     i h k u v V B C                           ",
"                          O           j j f u w w     w d h i t b V                             ",
"                          O         j j j h i w         u d d q w                               ",
"                          @         h j h s w w         u q < * o                               ",
"                          @ -       2 > , < w             = # . X                               ",
"                            $       $ $ @ o <             $ X o X                               ",
"                            $       $ $ O .               $ + X X                               ",
"                            +       $ @ X X               $ @ . X                               ",
"                            O       $ O X                 $ @ o X                               ",
"                            O       # X X                 $ O X X                               ",
"                            X     $ + X X                 $ O X X                               ",
"                            X     # X X                   $ + X X X X                           ",
"                            X   @ X X X                   O X X X X X X                         ",
"                                                                                                ",
"                                                                                                ",
"                                                                                                ",
"                                                                                                ",
"                                                                                                ",
"                                                                                                ",
"                                                                                                "
};
